<?xml version="1.0" encoding="utf-8"?>
<!-- Generator: Adobe Illustrator 16.0.0, SVG Export Plug-In . SVG Version: 6.00 Build 0)  -->
<!DOCTYPE svg PUBLIC "-//W3C//DTD SVG 1.1//EN" "http://www.w3.org/Graphics/SVG/1.1/DTD/svg11.dtd">
<svg version="1.1" xmlns="http://www.w3.org/2000/svg" xmlns:xlink="http://www.w3.org/1999/xlink" x="0px" y="0px" width="267px"
	 height="267px" viewBox="148.808 58.804 267 267" enable-background="new 148.808 58.804 267 267" xml:space="preserve">
<g id="レイヤー_1">
</g>
<g id="レイヤー_2">
	<g>
		<defs>
			<rect id="SVGID_1_" x="148.808" y="58.804" width="267" height="267"/>
		</defs>
		<defs>
			<rect id="SVGID_2_" x="72.5" y="37.5" width="366" height="360"/>
		</defs>
		<clipPath id="SVGID_3_">
			<use xlink:href="#SVGID_1_"  overflow="visible"/>
		</clipPath>
		<clipPath id="SVGID_4_" clip-path="url(#SVGID_3_)">
			<use xlink:href="#SVGID_2_"  overflow="visible"/>
		</clipPath>
		<path id="path3921" clip-path="url(#SVGID_4_)" fill="#FFFFFF" d="M157.809,178.097c0.067,0.011,6.602,1.656,18.164,7.282
			c10.41,5.06,17.12,10.421,17.188,10.474l1.531-1.915c-0.275-0.225-6.98-5.569-17.644-10.769
			c-11.821-5.752-18.374-7.393-18.644-7.456L157.809,178.097"/>
		<path id="path3925" clip-path="url(#SVGID_4_)" fill="#FFFFFF" d="M159.394,207.235c0.493,0.058,12.071,1.522,17.533,1.42
			l16.14-1.139l-0.229-2.443l-15.96,1.131c-5.282,0.106-17.053-1.39-17.159-1.402L159.394,207.235"/>
		<path id="path3929" clip-path="url(#SVGID_4_)" fill="#FFFFFF" d="M386.384,192.586c-6.637,2.051-19.788,3.712-19.918,3.727
			l0.311,2.432c0.538-0.068,13.481-1.707,20.336-3.825c8.108-2.509,13.649-6.963,13.879-7.152l-1.539-1.902
			C399.391,185.907,394.023,190.223,386.384,192.586"/>
		<path id="path3933" clip-path="url(#SVGID_4_)" fill="#FFFFFF" d="M366.826,216.008c0.327,0.138,8.065,3.584,16.283,4.716
			c8.068,1.083,13.504,0.819,13.74,0.801l-0.13-2.445c-0.058,0-5.466,0.269-13.283-0.789c-7.857-1.081-15.522-4.487-15.603-4.52
			L366.826,216.008"/>
		<path id="path3937" clip-path="url(#SVGID_4_)" fill="#FFFFFF" d="M382.582,204.329c-1.98-10.994-10.199-18.173-16.756-22.25
			c-2.578-1.632-4.941-2.811-6.701-3.607c-0.449-5.018-2.178-15.817-9-28.391c-4.84-8.96-19.102-21.08-23.311-24.574
			c-0.557-2.655-8.279-39.564-8.279-39.564s-0.275,0.249-0.297,0.262c-0.01-0.069-0.115-0.534-0.115-0.534
			s-25.523,22.964-27.052,24.319c-1.688,0.379-10.285,2.314-11.38,2.564c-4.826-0.544-9.25-0.8-13.467-0.754
			c-11.246,0.135-22.11,2.61-26.439,3.719c-2.938-2.049-34.744-24.173-34.744-24.173c0.029,0.044-0.364-0.221-0.364-0.221
			l-7.336-5.191c0,0,4.853,59.501,5.108,62.574c-4.47,5.826-18.519,25.915-18.519,48.628c0,8.113,1.813,16.587,6.523,24.824
			c6.247,10.964,14.959,20.227,25.896,27.598c-6.018,1.86-11.104,6.052-16.395,10.447l-5.408,4.364
			c-1.262,0.987-2.734,1.882-4.254,2.836c-4.746,2.934-11.009,6.813-11.009,14.771c0,1.327,0.176,2.758,0.553,4.321
			c0.456,1.867,1.485,5.663,3.218,10.148c-4.537-1.801-8.51-4.322-11.848-7.558c-5.724-5.542-9.895-12.537-13.554-18.729
			c-2.978-5.046-5.566-9.393-8.591-12.357c-5.232-5.111-10.301-4.209-13.628-2.562c-5.896,2.919-9.524,10.994-9.524,20.921
			c0,0.708,0.025,1.422,0.062,2.15c0.744,14.469,9.588,32.941,32.143,41.348c5.717,2.146,11.202,3.365,16.406,4.117
			c-2.594,0.882-4.871,1.567-6.333,1.982c-3.226-1.661-10.097-4.066-17.586,0.43c-6.401,3.847-7.044,12.993-1.81,25.109
			c6.323,14.623,22.002,34.482,35.515,30.652c6.147-1.72,10.105-4.886,11.778-9.383c0.601-1.591,0.851-3.232,0.851-4.871
			c0-5.589-2.935-11.2-5.522-15.378c18.605-5.405,36.914-15.979,43.644-20.109c4.673,4.562,9.27,9.176,13.616,13.789
			c13.526,14.397,33.399,31.685,34.24,32.41l0.915,0.802l1.196,0.18c0.814,0.108,19.827,2.998,36.024,3.642
			c17.148,0.681,24.322-1.209,25.635-6.81c1.584-6.693,0.617-12.406-2.829-16.942c-4.878-6.401-14.375-9.931-28.265-10.483
			c-5.918-0.236-11.108,0.153-13.814,0.41c-8.004-7.355-14.203-13.104-17.508-16.216c-3.773-3.567-9.76-9.688-17.789-18.162
			c2.851-2.666,5.896-6.303,9.683-11.548c0.76-1.047,1.573-2.305,2.416-3.726c1.823,1.359,4.739,3.861,8.996,8.45
			c5.296,5.683,10.703,8.383,16.574,8.273c4.912-0.084,9.387-2.117,13.74-4.085l0.371-0.187
			c5.462-2.494,23.307-11.477,25.328-22.977c0.514-2.969,0.217-7.408-4.18-11.733c-3.41-3.315-6.814-5.09-10.412-5.414
			c-5.717-0.516-10.41,2.842-14.555,5.813c-2.665,1.933-5.195,3.737-7.818,4.585c-0.819,0.252-1.594,0.385-2.307,0.385
			c-3.314,0-5.718-3.015-9.015-7.612c-1.208-1.65-2.431-3.392-3.784-4.838c-0.71-0.759-1.439-1.466-2.138-2.154
			c7.788-0.236,15.7-0.98,23.653-2.239c36.287-5.872,53.535-20.707,61.628-32.099c5.468-7.709,8.382-16.248,8.382-24.141
			C383.041,207.801,382.899,206.041,382.582,204.329"/>
		<path id="path3941" clip-path="url(#SVGID_4_)" fill="#221E1F" d="M382.582,204.329c-1.98-10.994-10.199-18.173-16.756-22.25
			c-2.578-1.632-4.941-2.811-6.701-3.607c-0.449-5.018-2.178-15.817-9-28.391c-4.84-8.96-19.102-21.08-23.311-24.574
			c-0.557-2.655-8.279-39.564-8.279-39.564s-0.275,0.249-0.297,0.262c-0.01-0.069-0.115-0.534-0.115-0.534
			s-25.523,22.964-27.052,24.319c-1.688,0.379-10.285,2.314-11.38,2.564c-4.826-0.544-9.25-0.8-13.467-0.754
			c-11.246,0.135-22.11,2.61-26.439,3.719c-2.938-2.049-34.744-24.173-34.744-24.173c0.029,0.044-0.364-0.221-0.364-0.221
			l-7.336-5.191c0,0,4.853,59.501,5.108,62.574c-4.47,5.826-18.519,25.915-18.519,48.628c0,8.113,1.813,16.587,6.523,24.824
			c6.247,10.964,14.959,20.227,25.896,27.598c-6.018,1.86-11.104,6.052-16.395,10.447l-5.408,4.364
			c-1.262,0.987-2.734,1.882-4.254,2.836c-4.746,2.934-11.009,6.813-11.009,14.771c0,1.327,0.176,2.758,0.553,4.321
			c0.456,1.867,1.485,5.663,3.218,10.148c-4.537-1.801-8.51-4.322-11.848-7.558c-5.724-5.542-9.895-12.537-13.554-18.729
			c-2.978-5.046-5.566-9.393-8.591-12.357c-5.232-5.111-10.301-4.209-13.628-2.562c-5.896,2.919-9.524,10.994-9.524,20.921
			c0,0.708,0.025,1.422,0.062,2.15c0.744,14.469,9.588,32.941,32.143,41.348c5.717,2.146,11.202,3.365,16.406,4.117
			c-2.594,0.882-4.871,1.567-6.333,1.982c-3.226-1.661-10.097-4.066-17.586,0.43c-6.401,3.847-7.044,12.993-1.81,25.109
			c6.323,14.623,22.002,34.482,35.515,30.652c6.147-1.72,10.105-4.886,11.778-9.383c0.601-1.591,0.851-3.232,0.851-4.871
			c0-5.589-2.935-11.2-5.522-15.378c18.605-5.405,36.914-15.979,43.644-20.109c4.673,4.562,9.27,9.176,13.616,13.789
			c13.526,14.397,33.399,31.685,34.24,32.41l0.915,0.802l1.196,0.18c0.814,0.108,19.827,2.998,36.024,3.642
			c17.148,0.681,24.322-1.209,25.635-6.81c1.584-6.693,0.617-12.406-2.829-16.942c-4.878-6.401-14.375-9.931-28.265-10.483
			c-5.918-0.236-11.108,0.153-13.814,0.41c-8.004-7.355-14.203-13.104-17.508-16.216c-3.773-3.567-9.76-9.688-17.789-18.162
			c2.851-2.666,5.896-6.303,9.683-11.548c0.76-1.047,1.573-2.305,2.416-3.726c1.823,1.359,4.739,3.861,8.996,8.45
			c5.296,5.683,10.703,8.383,16.574,8.273c4.912-0.084,9.387-2.117,13.74-4.085l0.371-0.187
			c5.462-2.494,23.307-11.477,25.328-22.977c0.514-2.969,0.217-7.408-4.18-11.733c-3.41-3.315-6.814-5.09-10.412-5.414
			c-5.717-0.516-10.41,2.842-14.555,5.813c-2.665,1.933-5.195,3.737-7.818,4.585c-0.819,0.252-1.594,0.385-2.307,0.385
			c-3.314,0-5.718-3.015-9.015-7.612c-1.208-1.65-2.431-3.392-3.784-4.838c-0.71-0.759-1.439-1.466-2.138-2.154
			c7.788-0.236,15.7-0.98,23.653-2.239c36.287-5.872,53.535-20.707,61.628-32.099c5.468-7.709,8.382-16.248,8.382-24.141
			C383.041,207.801,382.899,206.041,382.582,204.329"/>
		<path id="path3945" clip-path="url(#SVGID_4_)" fill="#F8A31F" d="M312.375,261.654c54.939-8.85,69.077-39.833,66.08-56.573
			c-3.021-16.735-23.389-23.643-23.389-23.643s0.211-13.034-8.635-29.347c-5.25-9.701-23.434-24.264-23.434-24.264l-7.1-33.907
			l-22.412,20.183l-12.588,2.83c-4.46-0.58-9.486-0.995-14.635-0.936c-13.774,0.164-27.273,4.073-27.273,4.073l-36.354-25.277
			l4.503,55.257c1.981-2.236-32.033,36.131-12.651,70.081c9.079,15.942,23.546,27.954,41.937,35.359l-1.354,1.139
			c-1.013-0.767-2.263-1.479-3.874-2.114c-14.468-5.776-22.006,3.869-34.026,13.167c-6.488,5.009-15.716,7.294-13.227,17.609
			c0.995,4.044,3.163,10.947,6.657,17.362l-0.368,0.211c-6.977-1.355-15.141-4.384-21.959-10.95
			c-15.335-14.842-19.558-38.58-30.979-32.923c-11.441,5.674-12.601,43.734,22.29,56.714c11.999,4.498,23.105,4.91,32.108,4.996
			l-0.015-0.29l7.476-3.497c-1.952,1.202-4.884,2.872-9.014,4.896l-10.22,3.91l-0.319,0.724c-6.094,2.271-11.999,3.858-11.999,3.858
			s-7.009-5.213-14.828-0.514c-12.807,7.697,14.7,52.555,30.382,48.118c19.009-5.366,4.321-23.541,1.606-28.189
			c24.25-5.525,50.68-22.688,50.68-22.688l-0.41,0.159l0.612-0.308c4.708,4.509,10.249,10.002,16.14,16.251
			c13.545,14.378,33.908,32.102,33.908,32.102s54.96,8.362,56.917,0.018c6.619-28.267-42.268-21.645-42.268-21.645
			s-12.985-11.914-18.95-17.568c-5.309-5.026-14.028-14.14-20.93-21.466l0.546-0.643c3.473-2.542,7.101-6.688,11.75-13.108
			c1.534-2.117,3.155-4.97,4.536-7.69l-0.006,0.813c0,0,3.563,0.621,13.397,11.195c9.831,10.566,17.325,6.923,25.858,3.042
			c8.509-3.901,31.286-16.711,19.902-27.872c-11.394-11.16-18.188,2.671-28.512,5.974c-10.336,3.289-14.447-7.771-19.5-13.193
			c-4.304-4.662-8.869-7.563-10.091-8.309l0.121-0.902C289.146,264.246,300.482,263.585,312.375,261.654"/>
		<path id="path3949" clip-path="url(#SVGID_4_)" fill="#FFFFFF" d="M138.486,259.145c-6.987,1.29-10.153,14.451-7.557,24.926
			c2.572,10.456,5.777,17.486,10.824,21.37c5.035,3.879-0.916-8.908,5.439-13.878c6.344-4.962,17.127-2.104,17.127-2.104
			s-8.21-12.143-12.876-19.473C146.759,262.655,145.197,257.901,138.486,259.145"/>
		<path id="path3953" clip-path="url(#SVGID_4_)" fill="#FFFFFF" d="M275.011,297.033c0,0,7.46-7.478-6.625-15.72
			c-14.096-8.267-20.985-0.822-25.576,3.499c-7.989,7.433,8.631,21.336,8.631,21.336l9.272,7.553c0,0,5.543-4.266,7.893-8.039
			C270.959,301.867,275.011,297.033,275.011,297.033"/>
		<path id="path3957" clip-path="url(#SVGID_4_)" fill="#FFFFFF" d="M250.215,194.769c0,0-24.631,1.811-26.049,16.759
			c-3.553,37.504,58.416,52.469,58.416,52.469s29.247,2.167,56.251-10.698c27.04-12.844,42.835-28.946,39.232-47.851
			c-3.622-18.9-26.683-23.618-26.683-23.618l-5.821-7.392l-26.8,6.769c0,0-0.352,9.956-13.16,12.253
			c-12.817,2.304-32.375-7.807-32.375-7.807L250.215,194.769"/>
		<path id="path3961" clip-path="url(#SVGID_4_)" fill="none" stroke="#42291B" stroke-width="1.25" d="M293.085,113.844
			l22.445-20.181l7.089,33.912c0,0,18.189,14.547,23.438,24.262c8.85,16.306,8.626,29.356,8.626,29.356s20.379,6.877,23.39,23.639
			c3.001,16.744-11.14,47.712-66.098,56.578c-54.931,8.857-98.488-7.551-117.871-41.522c-19.385-33.956,14.626-72.311,12.66-70.1
			l-4.517-55.225l42.748,30.146"/>
		<path id="path3965" clip-path="url(#SVGID_4_)" fill="none" stroke="#42291B" stroke-width="1.25" d="M296.487,119.753
			c0,0-14.852-4.177-30.612-4.004c-13.767,0.147-27.273,4.077-27.273,4.077"/>
		<path id="path3969" clip-path="url(#SVGID_4_)" fill="#FFFFFF" d="M269.588,158.922c8.032,13.329,6.585,28.962-3.246,34.878
			c-9.821,5.925-24.307-0.091-32.343-13.433c-8.061-13.343-6.597-28.954,3.227-34.876
			C247.064,139.565,261.555,145.574,269.588,158.922"/>
		<path id="path3973" clip-path="url(#SVGID_4_)" fill="none" stroke="#42291B" stroke-width="5.05" d="M269.588,158.922
			c8.032,13.329,6.585,28.962-3.246,34.878c-9.821,5.925-24.307-0.091-32.343-13.433c-8.061-13.343-6.597-28.954,3.227-34.876
			C247.064,139.565,261.555,145.574,269.588,158.922z"/>
		<path id="path3977" clip-path="url(#SVGID_4_)" fill="#FFFFFF" d="M339.662,151.981c8.041,13.324,7.811,28.218-0.492,33.225
			c-8.323,5.021-21.555-1.747-29.602-15.082c-8.055-13.342-7.844-28.215,0.491-33.236
			C318.365,131.89,331.632,138.635,339.662,151.981"/>
		<path id="path3981" clip-path="url(#SVGID_4_)" fill="none" stroke="#42291B" stroke-width="5.05" d="M339.662,151.981
			c8.041,13.324,7.811,28.218-0.492,33.225c-8.323,5.021-21.555-1.747-29.602-15.082c-8.055-13.342-7.844-28.215,0.491-33.236
			C318.365,131.89,331.632,138.635,339.662,151.981L339.662,151.981z"/>
		<path id="path3985" clip-path="url(#SVGID_4_)" fill="#221E1F" d="M260.974,177.73c-0.067,2.44-1.95,4.326-4.182,4.24
			c-2.231-0.073-3.959-2.113-3.858-4.532c0.084-2.408,1.96-4.298,4.18-4.21C259.34,173.296,261.055,175.325,260.974,177.73"/>
		<path id="path3989" clip-path="url(#SVGID_4_)" fill="#221E1F" d="M334.914,170.933c-0.096,2.416-1.956,4.325-4.189,4.243
			c-2.207-0.089-3.965-2.107-3.873-4.521c0.096-2.428,1.979-4.322,4.202-4.237C333.285,166.491,335.005,168.52,334.914,170.933"/>
		<path id="path3993" clip-path="url(#SVGID_4_)" fill="#604B44" d="M303.213,187.242c5.408,0.203,13.313-0.337,13.619,2.146
			c0.321,2.506-5.416,12.047-9.155,12.337c-3.739,0.271-17.569-7.488-17.604-12.051C290.029,185.113,298.25,187.069,303.213,187.242
			"/>
		<path id="path3997" clip-path="url(#SVGID_4_)" fill="none" stroke="#42291B" stroke-width="0.985" d="M303.213,187.242
			c5.408,0.203,13.313-0.337,13.619,2.146c0.321,2.506-5.416,12.047-9.155,12.337c-3.739,0.271-17.569-7.488-17.604-12.051
			C290.029,185.113,298.25,187.069,303.213,187.242L303.213,187.242z"/>
		<path id="path4001" clip-path="url(#SVGID_4_)" fill="none" stroke="#42291B" stroke-width="5.05" d="M193.923,194.901
			c0,0-6.748-5.438-17.413-10.631c-11.851-5.756-18.397-7.372-18.397-7.372"/>
		<path id="path4005" clip-path="url(#SVGID_4_)" fill="none" stroke="#42291B" stroke-width="5.05" d="M159.546,206.018
			c0,0,11.918,1.519,17.355,1.416c5.438-0.114,16.055-1.142,16.055-1.142"/>
		<path id="path4009" clip-path="url(#SVGID_4_)" fill="none" stroke="#42291B" stroke-width="5.05" d="M211.905,287.353
			c0,0,8.059-5.734,15.304-10.708c7.267-4.983,18.417-16.386,3.944-22.152c-14.469-5.754-22.003,3.892-34.011,13.189
			c-6.481,5.009-15.747,7.294-13.24,17.609c2.541,10.316,12.737,39.507,33.234,30.817c20.496-8.688-4.265-26.871-7.732-32.763"/>
		<path id="path4013" clip-path="url(#SVGID_4_)" fill="none" stroke="#42291B" stroke-width="0.985" d="M277.979,264.589
			c0,0,5.399,3.073,10.421,8.489c5.054,5.436,9.167,16.495,19.499,13.205c10.34-3.303,17.112-17.134,28.52-5.973
			c11.382,11.16-11.407,23.97-19.923,27.871c-8.532,3.881-15.991,7.525-25.83-3.042c-9.848-10.574-13.417-11.195-13.417-11.195"/>
		<path id="path4017" clip-path="url(#SVGID_4_)" fill="none" stroke="#42291B" stroke-width="1.25" d="M281.164,284.88
			c0,0-4.469,10.465-8.433,15.942c-4.757,6.545-8.438,10.755-11.992,13.289"/>
		<path id="path4021" clip-path="url(#SVGID_4_)" fill="none" stroke="#42291B" stroke-width="1.25" d="M250.12,303.523
			c0,0,21.438,23.271,31.22,32.516c5.988,5.648,18.952,17.568,18.952,17.568s48.88-6.622,42.267,21.645
			c-1.953,8.345-56.891-0.018-56.891-0.018s-20.385-17.724-33.916-32.101c-16.457-17.491-30.311-29.174-30.311-29.174"/>
		<path id="path4025" clip-path="url(#SVGID_4_)" fill="none" stroke="#42291B" stroke-width="0.985" d="M184.313,348.76
			c-0.082,1.913,19.666,23.246-1.178,29.147c-15.715,4.437-43.19-40.421-30.409-48.118c7.841-4.699,14.84,0.514,14.84,0.514
			s10.223-2.768,17.714-6.193c12.739-5.847,17.179-9.427,17.179-9.427"/>
		<path id="path4029" clip-path="url(#SVGID_4_)" fill="none" stroke="#42291B" stroke-width="0.985" d="M235.406,327.03
			c0,0-30.191,19.583-55.622,23.656"/>
		<path id="path4033" clip-path="url(#SVGID_4_)" fill="none" stroke="#42291B" stroke-width="0.985" d="M190.404,302.921
			c-7.028-1.337-15.298-4.384-22.166-11.006c-15.347-14.862-19.547-38.58-30.989-32.923c-11.442,5.674-12.583,43.734,22.289,56.715
			c12.008,4.497,23.109,4.909,32.12,4.995"/>
		<path id="path4037" clip-path="url(#SVGID_4_)" fill="none" stroke="#42291B" stroke-width="5.05" d="M366.616,197.527
			c0,0,13.312-1.667,20.134-3.776c7.977-2.472,13.469-6.932,13.469-6.932"/>
		<path id="path4041" clip-path="url(#SVGID_4_)" fill="none" stroke="#42291B" stroke-width="5.05" d="M367.334,214.884
			c0,0,7.804,3.502,15.941,4.623c8.045,1.083,13.514,0.801,13.514,0.801"/>
		<path id="path4045" clip-path="url(#SVGID_4_)" fill="none" stroke="#42291B" stroke-width="5.05" d="M264.662,207.142
			c0,0,29.779,9.974,40.961,12.836c11.156,2.838,31.371,6.036,31.371,6.036s-24.31,28.966-51.2,20.413
			C258.903,237.878,260.011,220.788,264.662,207.142z"/>
		<path id="path4049" clip-path="url(#SVGID_4_)" fill="#42291B" d="M372.357,247.287c0.004,0,0.004,0,0.004,0
			S372.361,247.287,372.357,247.287"/>
		<g clip-path="url(#SVGID_4_)">
			<text transform="matrix(1 0 0 1 277.248 299.4949)" fill="#006600" font-family="'Century'" font-size="186.2015">A</text>
		</g>
	</g>
</g>
</svg>
